<svg width="175" height="184"  viewBox="0 0 175 184" fill="none" xmlns="http://www.w3.org/2000/svg">
<path d="M92.8909 110.165L97.8505 109.644L97.3683 105.056L92.7416 105.166L92.8909 110.165V110.165ZM19.3235 85.3032L22.4304 81.4665L19.3235 85.3032ZM17.1181 83.4039L20.486 79.6651L17.1311 83.5278L17.1181 83.4039ZM5.63647 60.0399L0.637726 60.1892L5.63647 60.0399ZM13.3143 37.6708L17.1509 40.7777L13.1903 37.6838L13.3143 37.6708ZM32.8412 25.4642L31.948 20.5436L32.8412 25.4642ZM55.8436 30.8189L52.8868 34.8905L61.017 40.6801L60.7184 30.6827L55.7197 30.832L55.8436 30.8189ZM63.7564 8.29981L67.4951 11.6677L63.7564 8.29981V8.29981ZM107.153 3.7386L109.986 -0.319973L107.029 3.75163L107.153 3.7386ZM119.575 24.1205L114.668 25.1377L116.565 34.8418L123.327 27.6123L119.588 24.2445L119.575 24.1205ZM140.838 14.1133L140.987 19.112L140.838 14.1133ZM162.724 21.9672L159.493 25.8169L162.724 21.9672ZM174.761 42.2642L169.84 43.1574L174.761 42.2642ZM168.4 67.6288L172.472 70.5856L168.4 67.6288ZM166.625 69.8211L162.788 66.7143L166.625 69.8211ZM99.3384 109.487L98.5691 104.554L93.8966 105.421L94.3918 110.132L99.3514 109.611L99.3384 109.487ZM99.5078 111.099L94.5482 111.62L99.5078 111.099ZM120.046 139.528L121.685 134.843L120.046 139.528ZM154.569 131.638L158.361 128.356L155.079 124.564L151.3 127.97L154.569 131.638ZM158.849 136.578L162.255 140.357L165.923 137.088L162.654 133.42L158.973 136.565L158.849 136.578ZM134.552 147.531L134.031 142.572L134.552 147.531ZM118.864 146.171L120.379 141.499L115.77 150.132L118.864 146.171V146.171ZM148.267 158.751L148.862 153.674L148.143 158.764L148.267 158.751ZM185.269 150.6L189.636 148.01L187.046 143.644L182.692 146.358L185.269 150.6ZM188.747 156.252L191.324 160.494L195.442 157.93L192.989 153.675L188.747 156.252ZM161.872 165.344L161.351 160.385L161.872 165.344ZM147.457 165.355L148.176 160.265L147.457 165.355ZM108.926 145.837L105.271 149.23L108.926 145.837ZM108.926 145.837L105.134 149.119L108.802 145.85L108.926 145.837ZM102.258 137.261L106.487 134.56L97.2979 137.782L102.258 137.261ZM105.828 171.235L106.35 176.194L111.309 175.673L110.788 170.713L105.828 171.235ZM99.3808 171.912L94.4211 172.434L94.9424 177.393L99.9021 176.872L99.3808 171.912ZM95.797 137.815L100.757 137.294L91.2358 136.163L95.797 137.815ZM91.1818 147.577L95.4753 150.259L91.1818 147.577ZM91.1818 147.577L95.4753 150.259L91.1948 147.701L91.1818 147.577ZM57.4263 174.692L55.8022 169.974L57.5633 174.803L57.4263 174.692ZM43.4607 177.79L42.9395 172.83L43.4607 177.79ZM15.27 174.359L10.5848 172.721L8.94612 177.406L13.6313 179.045L15.27 174.359ZM17.3723 168.121L19.011 163.436L14.3128 161.673L12.6871 166.482L17.3723 168.121V168.121ZM55.3848 168.388L53.7476 163.546L55.3848 168.388ZM81.4058 149.983L85.2555 153.214L78.9528 145.728L81.4058 149.983V149.983ZM66.4807 154.686L65.9594 149.726L66.4807 154.686ZM40.3133 149.037L35.9219 146.615L33.6241 150.994L37.7676 153.441L40.3133 149.037ZM43.4727 143.314L46.0315 139.034L41.6139 136.364L39.0812 140.893L43.4727 143.314ZM78.8813 143.855L76.4283 139.6L78.8813 143.855ZM93.0473 111.653L98.0199 111.255L93.0603 111.777L93.0473 111.653ZM18.2732 41.9133L14.3125 38.8195L18.2732 41.9133V41.9133ZM53.6565 37.4422L50.5626 41.4029L53.6565 37.4422ZM55.7118 39.1066L58.9427 35.2569L55.5878 39.1196L55.7118 39.1066ZM57.2321 40.4512L53.8642 44.1899L57.2321 40.4512ZM64.1224 46.3711L60.7675 50.2338L70.7114 58.9668L68.945 45.7388L63.9984 46.3841L64.1224 46.3711ZM62.7991 37.3588L67.7457 36.7135L67.7196 36.4656L62.7991 37.3588ZM62.4342 33.8871L57.4745 34.4083L62.4342 33.8871ZM62.3038 32.6471L57.3181 32.9204L57.3442 33.1684L62.3038 32.6471ZM113.512 27.2649L108.553 27.7862L108.566 27.9102L113.512 27.2649ZM113.903 30.9847L118.863 30.4634L113.903 30.9847ZM114.007 31.9766L118.98 31.5793L118.967 31.4553L114.007 31.9766ZM114.711 41.054L109.751 41.5753L110.885 54.7444L118.795 44.1348L114.711 41.054V41.054ZM120.22 33.8309L124.291 36.7877L120.22 33.8309ZM121.303 32.2127L125.388 35.2935L121.303 32.2127ZM123.092 30.1443L126.941 33.3751L123.092 30.1443V30.1443ZM163.207 63.5363L159.135 60.5795L163.207 63.5363ZM161.542 65.5916L157.719 62.6088L161.542 65.5916ZM23.292 80.1224L20.1851 83.959L23.292 80.1224ZM21.3606 78.445L24.7285 74.7062L21.3606 78.445ZM92.7416 105.166C67.2666 105.885 42.3734 97.4754 22.5544 81.4535L16.0927 89.1529C37.8394 106.771 65.1888 115.997 93.1642 115.15L92.7416 105.166V105.166ZM22.5544 81.4535L20.362 79.6782L13.8873 87.2535L16.0927 89.1529L22.4304 81.4665L22.5544 81.4535ZM20.362 79.6782C17.4423 77.2477 15.0672 74.2295 13.3913 70.8202C11.7154 67.4109 10.7764 63.6869 10.6352 59.8906L0.637726 60.1892C0.988464 70.6826 5.6007 79.976 13.8873 87.2535L20.362 79.6782V79.6782ZM10.7592 59.8775C10.5645 53.2539 12.7386 46.5066 17.2749 40.7646L9.36666 34.701C3.61835 41.9311 0.574887 50.9413 0.761717 60.1762L10.7592 59.8775ZM17.2749 40.7646C21.7003 35.1597 27.587 31.5323 33.8454 30.2477L32.072 20.5306C23.2228 22.2129 15.2345 27.3148 9.36666 34.701L17.2749 40.7646ZM33.8454 30.2477C37.216 29.6723 40.6688 29.7961 43.9894 30.6117C47.31 31.4272 50.4274 32.917 53.1479 34.9885L58.8135 26.8713C55.0171 24.06 50.6895 22.0485 46.093 20.9586C41.4964 19.8687 36.7265 19.7231 32.072 20.5306L33.8585 30.3717L33.8454 30.2477ZM60.8554 30.7936C60.6674 23.041 63.1156 16.5156 67.6191 11.6547L60.1417 4.91891C53.7258 11.8613 50.5463 20.9707 50.8449 30.9682L60.8554 30.7936ZM67.6191 11.6547C71.9986 6.80671 78.1986 3.77321 85.2661 3.03038L84.2235 -6.88892C74.8002 -5.89848 66.2117 -1.7364 60.1417 4.91891L67.4951 11.6677L67.6191 11.6547ZM85.2661 3.03038C92.3336 2.28756 99.0418 4.08972 104.321 7.79717L110.11 -0.333004C102.502 -5.65813 93.1943 -7.98371 83.9755 -6.86285L85.0181 3.05645L85.2661 3.03038ZM104.321 7.79717C109.736 11.6156 113.364 17.5024 114.916 25.1116L124.744 23.2011C122.833 13.3731 117.829 5.12373 110.11 -0.333004L104.321 7.79717V7.79717ZM123.327 27.6123C128.509 22.0532 134.611 19.2807 141.235 19.086L140.936 9.08849C131.435 9.33497 122.846 13.4971 116.084 20.7265L123.314 27.4883L123.327 27.6123ZM141.235 19.086C147.487 18.9303 153.999 21.2545 159.63 25.9278L165.968 18.2415C159.001 12.2706 150.111 9.01973 140.936 9.08849L141.111 19.099L141.235 19.086ZM159.63 25.9278C165.111 30.3662 168.777 36.625 169.964 43.1444L179.805 41.3579C178.078 32.2822 173.226 24.0985 166.092 18.2285L159.617 25.8039L159.63 25.9278ZM169.964 43.1444C171.366 50.5187 169.505 57.8599 164.44 64.5349L172.596 70.5725C179.064 61.7442 181.644 51.695 179.805 41.3579L169.964 43.1444ZM164.44 64.5349L162.912 66.7012L170.71 72.9019L172.472 70.5856L164.44 64.5349ZM162.788 66.7143C146.671 86.6406 123.927 100.11 98.7062 104.664L100.369 114.519C110.954 112.654 145.711 104.613 170.71 72.9019L162.788 66.7143V66.7143ZM104.702 110.428L104.559 109.064L94.6398 110.106L94.7962 111.594L104.715 110.552L104.702 110.428ZM121.809 134.83C112.7 131.651 106.332 123.545 104.565 110.317L94.6852 111.731C96.8493 127.55 104.998 139.48 118.545 144.325L121.809 134.83ZM151.424 127.957C143.298 135.329 131.428 138.081 121.809 134.83L118.532 144.201C131.928 148.81 147.441 144.923 158.086 135.28L151.424 127.957ZM162.778 133.407L158.485 128.343L151.025 134.893L155.305 139.834L162.778 133.407V133.407ZM135.21 152.602C145.253 151.546 154.697 147.169 162.379 140.344L155.704 132.897C149.641 138.424 142.103 141.848 134.168 142.683L135.21 152.602V152.602ZM117.473 150.831C123.301 152.6 129.246 153.103 135.197 152.478L134.155 142.559C129.566 143.102 124.914 142.695 120.49 141.362L117.597 150.818L117.473 150.831ZM148.986 153.661C139.151 152.453 129.864 148.473 122.206 142.185L115.881 149.995C125.014 157.442 136.072 162.148 147.771 163.567L148.986 153.661ZM182.803 146.221C172.682 152.424 160.753 155.004 148.973 153.537L147.771 163.567C161.825 165.272 176.042 162.142 188.081 154.692L182.803 146.221V146.221ZM193.1 153.538L189.747 147.873L181.125 152.916L184.492 158.705L193.1 153.538ZM162.518 170.291C172.782 169.198 182.666 165.802 191.435 160.357L186.157 151.885C178.672 156.534 170.236 159.434 161.475 160.372L162.518 170.291V170.291ZM146.947 170.047C152.037 170.766 157.31 170.838 162.518 170.291L161.475 160.372C157.011 160.841 152.62 160.801 148.176 160.265L146.947 170.047ZM105.382 149.093C116.373 160.733 131.074 168.186 146.96 170.171L148.176 160.265C134.583 158.6 121.993 152.255 112.567 142.32L105.382 149.093ZM105.382 149.093L112.691 142.307L105.258 149.106L105.382 149.093ZM98.1394 139.825C100.24 143.114 102.563 146.13 105.382 149.093L112.567 142.32C110.434 139.912 108.274 137.256 106.722 134.41L98.1394 139.825ZM110.899 170.576L107.328 136.603L97.4089 137.645L100.98 171.619L110.899 170.576ZM100.013 176.735L106.461 176.057L105.418 166.138L98.9705 166.816L100.013 176.735ZM90.9483 138.199L94.5321 172.297L104.451 171.254L100.868 137.157L90.9483 138.199V138.199ZM95.5732 149.998C97.6032 146.651 99.2352 143.095 100.73 139.427L91.3467 136.026C90.1716 139.158 88.7224 142.069 87.0253 145.005L95.5732 149.998ZM95.5862 150.122L87.0122 144.881L95.5993 150.246L95.5862 150.122ZM59.1614 179.274C74.2955 174.173 87.1202 163.799 95.5862 150.122L87.0122 144.881C79.8581 156.558 68.8628 165.382 55.9131 169.837L59.1614 179.274ZM44.093 182.613C49.1766 182.078 54.3321 181.035 59.1614 179.274L55.9131 169.837C51.8017 171.272 47.4031 172.361 43.0634 172.817L44.106 182.737L44.093 182.613ZM13.6313 179.045C23.3856 182.519 33.8 183.738 44.093 182.613L43.0504 172.693C34.371 173.605 25.4962 172.658 17.0327 169.661L13.7553 179.032L13.6313 179.045ZM12.8111 166.469L10.7088 172.708L20.0662 175.861L22.1685 169.623L12.8111 166.469ZM53.8846 163.657C42.6271 167.473 30.4566 167.373 19.135 163.423L15.8576 172.793C29.1929 177.534 43.7446 177.597 57.1199 172.969L53.8846 163.657ZM77.5561 146.752C71.2314 154.563 63.0603 160.31 53.7476 163.546L56.9959 172.983C68.0054 169.193 77.8082 162.271 85.2425 153.09L77.5561 146.752V146.752ZM66.9889 159.521C72.8165 158.909 78.6378 157.044 83.8588 154.238L78.9398 145.604C74.9065 147.783 70.5341 149.12 65.9464 149.602L66.9889 159.521V159.521ZM37.7676 153.441C46.7005 158.52 56.8347 160.714 67.002 159.645L65.9594 149.726C57.9 150.573 49.8279 148.914 42.8721 144.756L37.7676 153.441ZM39.0812 140.893L35.9219 146.615L44.7048 151.459L47.8641 145.736L39.0812 140.893ZM76.4153 139.476C67.572 144.793 55.5125 144.556 46.0184 138.91L40.9139 147.595C53.2203 154.951 69.3127 155.391 81.4583 148.097L76.4283 139.6L76.4153 139.476ZM88.0746 112.05C89.221 125.343 84.6776 134.596 76.4283 139.6L81.4583 148.097C93.8519 140.777 99.3291 127.289 98.0199 111.255L88.0746 112.05V112.05ZM87.9442 110.81L88.0876 112.174L98.0069 111.131L97.8505 109.644L87.9312 110.686L87.9442 110.81ZM35.2425 26.8415C26.5631 27.7538 19.1817 32.6665 14.3125 38.8195L22.1098 45.0202C25.6475 40.5114 30.8294 37.3342 36.285 36.7608L35.2425 26.8415V26.8415ZM56.7503 33.4816C53.7837 31.0056 50.3548 29.1436 46.6626 28.0037C42.9704 26.8638 39.0886 26.4688 35.2425 26.8415L36.285 36.7608C40.6247 36.3047 45.5058 37.4214 50.5626 41.4029L56.7503 33.4816ZM58.9427 35.2569L56.7503 33.4816L50.5626 41.4029L52.481 42.9563L58.9427 35.2569V35.2569ZM60.6 36.7124C60.0536 36.2205 59.5011 35.7352 58.9427 35.2569L52.481 42.9563L53.8642 44.1899L60.6 36.7124V36.7124ZM67.3663 42.6454L60.476 36.7255L53.9882 44.1768L60.7675 50.2338L67.3663 42.6454ZM57.9764 37.9911L59.0648 47.1534L68.945 45.7388L67.7457 36.7135L57.8524 38.0041L57.9764 37.9911ZM57.7419 35.7592L57.9895 38.1151L67.8436 36.4525L67.6612 34.7167L57.7419 35.7592ZM57.5985 34.3953L57.7419 35.7592L67.6612 34.7167L67.5308 33.4767L57.5985 34.3953ZM57.4682 33.1554L57.5985 34.3953L67.5308 33.4767L67.3875 32.1128L57.4682 33.1554ZM84.6662 -0.291318C80.6774 0.0613785 76.7986 1.2046 73.2561 3.07171C69.7135 4.93881 66.5781 7.49244 64.0326 10.5837C61.4871 13.675 59.5824 17.2421 58.4296 21.077C57.2769 24.912 56.899 28.938 57.3181 32.9204L67.2765 32.2499C66.6186 24.7974 68.9491 19.538 72.3431 16.0472C75.7109 12.3085 80.7492 10.1493 85.7088 9.62798L84.6662 -0.291318V-0.291318ZM118.335 26.6327C117.925 22.3182 116.591 18.1427 114.422 14.3902C112.254 10.6378 109.303 7.39647 105.77 4.88691C99.5661 0.725857 92.0913 -1.10827 84.6662 -0.291318L85.7088 9.62798C90.6684 9.1067 95.9215 10.1843 100.117 13.128C104.176 15.9609 107.549 20.6208 108.442 27.9232L118.335 26.6327ZM118.622 29.3605L118.322 26.5087L108.442 27.9232L108.702 30.403L118.622 29.3605ZM118.622 29.3605L108.702 30.403L118.622 29.3605ZM118.752 30.6004L118.622 29.3605L108.702 30.403L108.793 31.271L118.752 30.6004V30.6004ZM118.843 31.4683L118.752 30.6004L108.793 31.271L108.924 32.5109L118.843 31.4683V31.4683ZM119.573 40.7937L118.856 31.5923L108.911 32.3869L109.614 41.4643L119.573 40.7937ZM116.024 30.8871L110.639 38.0972L118.671 44.1478L124.167 36.8007L116.024 30.8871V30.8871ZM117.343 29.1188L116.024 30.8871L124.167 36.8007L125.264 35.3065L117.343 29.1188V29.1188ZM119.118 26.9265L117.343 29.1188L125.264 35.3065L126.817 33.3882L119.118 26.9265V26.9265ZM161.738 23.3244C156.257 18.886 149.034 15.7591 141.268 15.8231C136.984 15.9176 132.775 16.9627 128.944 18.8829C125.113 20.8032 121.757 23.5505 119.118 26.9265L126.817 33.3882C131.38 27.8942 136.555 25.8459 141.43 25.7096C146.441 25.6843 151.427 27.7929 155.276 31.0238L161.738 23.3244V23.3244ZM167.043 66.6432C173.081 58.4869 174.564 49.9319 173.123 42.1856C171.588 34.7849 167.571 28.1305 161.738 23.3244L155.276 31.0238C159.263 34.3656 162.388 39.0516 163.281 43.9721C164.312 49.0036 163.41 54.7396 159.135 60.5795L167.03 66.5192L167.043 66.6432ZM165.379 68.6985L167.03 66.5192L159.135 60.5795L157.595 62.6218L165.379 68.6985ZM96.2193 108.436C96.9632 108.358 138.089 103.659 165.516 68.8095L157.732 62.7328C146.972 76.003 132.915 86.2131 116.967 92.3402C104.339 97.4283 94.9157 98.4188 95.0397 98.4057L96.0822 108.325L96.2193 108.436ZM20.1851 83.959C41.6069 101.196 68.6388 109.917 96.0953 108.449L95.0527 98.5297C95.0527 98.5297 85.6294 99.5202 72.3433 97.1557C55.496 94.4196 39.6621 87.3086 26.4249 76.5337L20.0742 84.096L20.1851 83.959ZM17.9927 82.1837L20.1851 83.959L26.5359 76.3967L24.6045 74.7193L17.9927 82.1837V82.1837ZM14.3125 38.8195C9.88719 44.4244 6.91028 51.8829 7.0983 59.6355C7.29936 67.5121 10.5283 75.5719 18.0058 82.3077L24.7285 74.7062C19.2085 69.8959 17.1472 64.5967 17.1088 59.4609C17.0574 54.2011 19.016 48.9808 22.1229 45.1442L14.3125 38.8195V38.8195Z" fill="url(#paint0_radial_3213_946)"/>
<path d="M92.8909 110.165L97.8505 109.644L97.3683 105.056L92.7416 105.166L92.8909 110.165V110.165ZM19.3235 85.3032L22.4304 81.4665L19.3235 85.3032ZM17.1181 83.4039L20.486 79.6651L17.1311 83.5278L17.1181 83.4039ZM5.63647 60.0399L0.637726 60.1892L5.63647 60.0399ZM13.3143 37.6708L17.1509 40.7777L13.1903 37.6838L13.3143 37.6708ZM32.8412 25.4642L31.948 20.5436L32.8412 25.4642ZM55.8436 30.8189L52.8868 34.8905L61.017 40.6801L60.7184 30.6827L55.7197 30.832L55.8436 30.8189ZM63.7564 8.29981L67.4951 11.6677L63.7564 8.29981V8.29981ZM107.153 3.7386L109.986 -0.319973L107.029 3.75163L107.153 3.7386ZM119.575 24.1205L114.668 25.1377L116.565 34.8418L123.327 27.6123L119.588 24.2445L119.575 24.1205ZM140.838 14.1133L140.987 19.112L140.838 14.1133ZM162.724 21.9672L159.493 25.8169L162.724 21.9672ZM174.761 42.2642L169.84 43.1574L174.761 42.2642ZM168.4 67.6288L172.472 70.5856L168.4 67.6288ZM166.625 69.8211L162.788 66.7143L166.625 69.8211ZM99.3384 109.487L98.5691 104.554L93.8966 105.421L94.3918 110.132L99.3514 109.611L99.3384 109.487ZM99.5078 111.099L94.5482 111.62L99.5078 111.099ZM120.046 139.528L121.685 134.843L120.046 139.528ZM154.569 131.638L158.361 128.356L155.079 124.564L151.3 127.97L154.569 131.638ZM158.849 136.578L162.255 140.357L165.923 137.088L162.654 133.42L158.973 136.565L158.849 136.578ZM134.552 147.531L134.031 142.572L134.552 147.531ZM118.864 146.171L120.379 141.499L115.77 150.132L118.864 146.171V146.171ZM148.267 158.751L148.862 153.674L148.143 158.764L148.267 158.751ZM185.269 150.6L189.636 148.01L187.046 143.644L182.692 146.358L185.269 150.6ZM188.747 156.252L191.324 160.494L195.442 157.93L192.989 153.675L188.747 156.252ZM161.872 165.344L161.351 160.385L161.872 165.344ZM147.457 165.355L148.176 160.265L147.457 165.355ZM108.926 145.837L105.271 149.23L108.926 145.837ZM108.926 145.837L105.134 149.119L108.802 145.85L108.926 145.837ZM102.258 137.261L106.487 134.56L97.2979 137.782L102.258 137.261ZM105.828 171.235L106.35 176.194L111.309 175.673L110.788 170.713L105.828 171.235ZM99.3808 171.912L94.4211 172.434L94.9424 177.393L99.9021 176.872L99.3808 171.912ZM95.797 137.815L100.757 137.294L91.2358 136.163L95.797 137.815ZM91.1818 147.577L95.4753 150.259L91.1818 147.577ZM91.1818 147.577L95.4753 150.259L91.1948 147.701L91.1818 147.577ZM57.4263 174.692L55.8022 169.974L57.5633 174.803L57.4263 174.692ZM43.4607 177.79L42.9395 172.83L43.4607 177.79ZM15.27 174.359L10.5848 172.721L8.94612 177.406L13.6313 179.045L15.27 174.359ZM17.3723 168.121L19.011 163.436L14.3128 161.673L12.6871 166.482L17.3723 168.121V168.121ZM55.3848 168.388L53.7476 163.546L55.3848 168.388ZM81.4058 149.983L85.2555 153.214L78.9528 145.728L81.4058 149.983V149.983ZM66.4807 154.686L65.9594 149.726L66.4807 154.686ZM40.3133 149.037L35.9219 146.615L33.6241 150.994L37.7676 153.441L40.3133 149.037ZM43.4727 143.314L46.0315 139.034L41.6139 136.364L39.0812 140.893L43.4727 143.314ZM78.8813 143.855L76.4283 139.6L78.8813 143.855ZM93.0473 111.653L98.0199 111.255L93.0603 111.777L93.0473 111.653ZM18.2732 41.9133L14.3125 38.8195L18.2732 41.9133V41.9133ZM53.6565 37.4422L50.5626 41.4029L53.6565 37.4422ZM55.7118 39.1066L58.9427 35.2569L55.5878 39.1196L55.7118 39.1066ZM57.2321 40.4512L53.8642 44.1899L57.2321 40.4512ZM64.1224 46.3711L60.7675 50.2338L70.7114 58.9668L68.945 45.7388L63.9984 46.3841L64.1224 46.3711ZM62.7991 37.3588L67.7457 36.7135L67.7196 36.4656L62.7991 37.3588ZM62.4342 33.8871L57.4745 34.4083L62.4342 33.8871ZM62.3038 32.6471L57.3181 32.9204L57.3442 33.1684L62.3038 32.6471ZM113.512 27.2649L108.553 27.7862L108.566 27.9102L113.512 27.2649ZM113.903 30.9847L118.863 30.4634L113.903 30.9847ZM114.007 31.9766L118.98 31.5793L118.967 31.4553L114.007 31.9766ZM114.711 41.054L109.751 41.5753L110.885 54.7444L118.795 44.1348L114.711 41.054V41.054ZM120.22 33.8309L124.291 36.7877L120.22 33.8309ZM121.303 32.2127L125.388 35.2935L121.303 32.2127ZM123.092 30.1443L126.941 33.3751L123.092 30.1443V30.1443ZM163.207 63.5363L159.135 60.5795L163.207 63.5363ZM161.542 65.5916L157.719 62.6088L161.542 65.5916ZM23.292 80.1224L20.1851 83.959L23.292 80.1224ZM21.3606 78.445L24.7285 74.7062L21.3606 78.445ZM92.7416 105.166C67.2666 105.885 42.3734 97.4754 22.5544 81.4535L16.0927 89.1529C37.8394 106.771 65.1888 115.997 93.1642 115.15L92.7416 105.166V105.166ZM22.5544 81.4535L20.362 79.6782L13.8873 87.2535L16.0927 89.1529L22.4304 81.4665L22.5544 81.4535ZM20.362 79.6782C17.4423 77.2477 15.0672 74.2295 13.3913 70.8202C11.7154 67.4109 10.7764 63.6869 10.6352 59.8906L0.637726 60.1892C0.988464 70.6826 5.6007 79.976 13.8873 87.2535L20.362 79.6782V79.6782ZM10.7592 59.8775C10.5645 53.2539 12.7386 46.5066 17.2749 40.7646L9.36666 34.701C3.61835 41.9311 0.574887 50.9413 0.761717 60.1762L10.7592 59.8775ZM17.2749 40.7646C21.7003 35.1597 27.587 31.5323 33.8454 30.2477L32.072 20.5306C23.2228 22.2129 15.2345 27.3148 9.36666 34.701L17.2749 40.7646ZM33.8454 30.2477C37.216 29.6723 40.6688 29.7961 43.9894 30.6117C47.31 31.4272 50.4274 32.917 53.1479 34.9885L58.8135 26.8713C55.0171 24.06 50.6895 22.0485 46.093 20.9586C41.4964 19.8687 36.7265 19.7231 32.072 20.5306L33.8585 30.3717L33.8454 30.2477ZM60.8554 30.7936C60.6674 23.041 63.1156 16.5156 67.6191 11.6547L60.1417 4.91891C53.7258 11.8613 50.5463 20.9707 50.8449 30.9682L60.8554 30.7936ZM67.6191 11.6547C71.9986 6.80671 78.1986 3.77321 85.2661 3.03038L84.2235 -6.88892C74.8002 -5.89848 66.2117 -1.7364 60.1417 4.91891L67.4951 11.6677L67.6191 11.6547ZM85.2661 3.03038C92.3336 2.28756 99.0418 4.08972 104.321 7.79717L110.11 -0.333004C102.502 -5.65813 93.1943 -7.98371 83.9755 -6.86285L85.0181 3.05645L85.2661 3.03038ZM104.321 7.79717C109.736 11.6156 113.364 17.5024 114.916 25.1116L124.744 23.2011C122.833 13.3731 117.829 5.12373 110.11 -0.333004L104.321 7.79717V7.79717ZM123.327 27.6123C128.509 22.0532 134.611 19.2807 141.235 19.086L140.936 9.08849C131.435 9.33497 122.846 13.4971 116.084 20.7265L123.314 27.4883L123.327 27.6123ZM141.235 19.086C147.487 18.9303 153.999 21.2545 159.63 25.9278L165.968 18.2415C159.001 12.2706 150.111 9.01973 140.936 9.08849L141.111 19.099L141.235 19.086ZM159.63 25.9278C165.111 30.3662 168.777 36.625 169.964 43.1444L179.805 41.3579C178.078 32.2822 173.226 24.0985 166.092 18.2285L159.617 25.8039L159.63 25.9278ZM169.964 43.1444C171.366 50.5187 169.505 57.8599 164.44 64.5349L172.596 70.5725C179.064 61.7442 181.644 51.695 179.805 41.3579L169.964 43.1444ZM164.44 64.5349L162.912 66.7012L170.71 72.9019L172.472 70.5856L164.44 64.5349ZM162.788 66.7143C146.671 86.6406 123.927 100.11 98.7062 104.664L100.369 114.519C110.954 112.654 145.711 104.613 170.71 72.9019L162.788 66.7143V66.7143ZM104.702 110.428L104.559 109.064L94.6398 110.106L94.7962 111.594L104.715 110.552L104.702 110.428ZM121.809 134.83C112.7 131.651 106.332 123.545 104.565 110.317L94.6852 111.731C96.8493 127.55 104.998 139.48 118.545 144.325L121.809 134.83ZM151.424 127.957C143.298 135.329 131.428 138.081 121.809 134.83L118.532 144.201C131.928 148.81 147.441 144.923 158.086 135.28L151.424 127.957ZM162.778 133.407L158.485 128.343L151.025 134.893L155.305 139.834L162.778 133.407V133.407ZM135.21 152.602C145.253 151.546 154.697 147.169 162.379 140.344L155.704 132.897C149.641 138.424 142.103 141.848 134.168 142.683L135.21 152.602V152.602ZM117.473 150.831C123.301 152.6 129.246 153.103 135.197 152.478L134.155 142.559C129.566 143.102 124.914 142.695 120.49 141.362L117.597 150.818L117.473 150.831ZM148.986 153.661C139.151 152.453 129.864 148.473 122.206 142.185L115.881 149.995C125.014 157.442 136.072 162.148 147.771 163.567L148.986 153.661ZM182.803 146.221C172.682 152.424 160.753 155.004 148.973 153.537L147.771 163.567C161.825 165.272 176.042 162.142 188.081 154.692L182.803 146.221V146.221ZM193.1 153.538L189.747 147.873L181.125 152.916L184.492 158.705L193.1 153.538ZM162.518 170.291C172.782 169.198 182.666 165.802 191.435 160.357L186.157 151.885C178.672 156.534 170.236 159.434 161.475 160.372L162.518 170.291V170.291ZM146.947 170.047C152.037 170.766 157.31 170.838 162.518 170.291L161.475 160.372C157.011 160.841 152.62 160.801 148.176 160.265L146.947 170.047ZM105.382 149.093C116.373 160.733 131.074 168.186 146.96 170.171L148.176 160.265C134.583 158.6 121.993 152.255 112.567 142.32L105.382 149.093ZM105.382 149.093L112.691 142.307L105.258 149.106L105.382 149.093ZM98.1394 139.825C100.24 143.114 102.563 146.13 105.382 149.093L112.567 142.32C110.434 139.912 108.274 137.256 106.722 134.41L98.1394 139.825ZM110.899 170.576L107.328 136.603L97.4089 137.645L100.98 171.619L110.899 170.576ZM100.013 176.735L106.461 176.057L105.418 166.138L98.9705 166.816L100.013 176.735ZM90.9483 138.199L94.5321 172.297L104.451 171.254L100.868 137.157L90.9483 138.199V138.199ZM95.5732 149.998C97.6032 146.651 99.2352 143.095 100.73 139.427L91.3467 136.026C90.1716 139.158 88.7224 142.069 87.0253 145.005L95.5732 149.998ZM95.5862 150.122L87.0122 144.881L95.5993 150.246L95.5862 150.122ZM59.1614 179.274C74.2955 174.173 87.1202 163.799 95.5862 150.122L87.0122 144.881C79.8581 156.558 68.8628 165.382 55.9131 169.837L59.1614 179.274ZM44.093 182.613C49.1766 182.078 54.3321 181.035 59.1614 179.274L55.9131 169.837C51.8017 171.272 47.4031 172.361 43.0634 172.817L44.106 182.737L44.093 182.613ZM13.6313 179.045C23.3856 182.519 33.8 183.738 44.093 182.613L43.0504 172.693C34.371 173.605 25.4962 172.658 17.0327 169.661L13.7553 179.032L13.6313 179.045ZM12.8111 166.469L10.7088 172.708L20.0662 175.861L22.1685 169.623L12.8111 166.469ZM53.8846 163.657C42.6271 167.473 30.4566 167.373 19.135 163.423L15.8576 172.793C29.1929 177.534 43.7446 177.597 57.1199 172.969L53.8846 163.657ZM77.5561 146.752C71.2314 154.563 63.0603 160.31 53.7476 163.546L56.9959 172.983C68.0054 169.193 77.8082 162.271 85.2425 153.09L77.5561 146.752V146.752ZM66.9889 159.521C72.8165 158.909 78.6378 157.044 83.8588 154.238L78.9398 145.604C74.9065 147.783 70.5341 149.12 65.9464 149.602L66.9889 159.521V159.521ZM37.7676 153.441C46.7005 158.52 56.8347 160.714 67.002 159.645L65.9594 149.726C57.9 150.573 49.8279 148.914 42.8721 144.756L37.7676 153.441ZM39.0812 140.893L35.9219 146.615L44.7048 151.459L47.8641 145.736L39.0812 140.893ZM76.4153 139.476C67.572 144.793 55.5125 144.556 46.0184 138.91L40.9139 147.595C53.2203 154.951 69.3127 155.391 81.4583 148.097L76.4283 139.6L76.4153 139.476ZM88.0746 112.05C89.221 125.343 84.6776 134.596 76.4283 139.6L81.4583 148.097C93.8519 140.777 99.3291 127.289 98.0199 111.255L88.0746 112.05V112.05ZM87.9442 110.81L88.0876 112.174L98.0069 111.131L97.8505 109.644L87.9312 110.686L87.9442 110.81ZM35.2425 26.8415C26.5631 27.7538 19.1817 32.6665 14.3125 38.8195L22.1098 45.0202C25.6475 40.5114 30.8294 37.3342 36.285 36.7608L35.2425 26.8415V26.8415ZM56.7503 33.4816C53.7837 31.0056 50.3548 29.1436 46.6626 28.0037C42.9704 26.8638 39.0886 26.4688 35.2425 26.8415L36.285 36.7608C40.6247 36.3047 45.5058 37.4214 50.5626 41.4029L56.7503 33.4816ZM58.9427 35.2569L56.7503 33.4816L50.5626 41.4029L52.481 42.9563L58.9427 35.2569V35.2569ZM60.6 36.7124C60.0536 36.2205 59.5011 35.7352 58.9427 35.2569L52.481 42.9563L53.8642 44.1899L60.6 36.7124V36.7124ZM67.3663 42.6454L60.476 36.7255L53.9882 44.1768L60.7675 50.2338L67.3663 42.6454ZM57.9764 37.9911L59.0648 47.1534L68.945 45.7388L67.7457 36.7135L57.8524 38.0041L57.9764 37.9911ZM57.7419 35.7592L57.9895 38.1151L67.8436 36.4525L67.6612 34.7167L57.7419 35.7592ZM57.5985 34.3953L57.7419 35.7592L67.6612 34.7167L67.5308 33.4767L57.5985 34.3953ZM57.4682 33.1554L57.5985 34.3953L67.5308 33.4767L67.3875 32.1128L57.4682 33.1554ZM84.6662 -0.291318C80.6774 0.0613785 76.7986 1.2046 73.2561 3.07171C69.7135 4.93881 66.5781 7.49244 64.0326 10.5837C61.4871 13.675 59.5824 17.2421 58.4296 21.077C57.2769 24.912 56.899 28.938 57.3181 32.9204L67.2765 32.2499C66.6186 24.7974 68.9491 19.538 72.3431 16.0472C75.7109 12.3085 80.7492 10.1493 85.7088 9.62798L84.6662 -0.291318V-0.291318ZM118.335 26.6327C117.925 22.3182 116.591 18.1427 114.422 14.3902C112.254 10.6378 109.303 7.39647 105.77 4.88691C99.5661 0.725857 92.0913 -1.10827 84.6662 -0.291318L85.7088 9.62798C90.6684 9.1067 95.9215 10.1843 100.117 13.128C104.176 15.9609 107.549 20.6208 108.442 27.9232L118.335 26.6327ZM118.622 29.3605L118.322 26.5087L108.442 27.9232L108.702 30.403L118.622 29.3605ZM118.622 29.3605L108.702 30.403L118.622 29.3605ZM118.752 30.6004L118.622 29.3605L108.702 30.403L108.793 31.271L118.752 30.6004V30.6004ZM118.843 31.4683L118.752 30.6004L108.793 31.271L108.924 32.5109L118.843 31.4683V31.4683ZM119.573 40.7937L118.856 31.5923L108.911 32.3869L109.614 41.4643L119.573 40.7937ZM116.024 30.8871L110.639 38.0972L118.671 44.1478L124.167 36.8007L116.024 30.8871V30.8871ZM117.343 29.1188L116.024 30.8871L124.167 36.8007L125.264 35.3065L117.343 29.1188V29.1188ZM119.118 26.9265L117.343 29.1188L125.264 35.3065L126.817 33.3882L119.118 26.9265V26.9265ZM161.738 23.3244C156.257 18.886 149.034 15.7591 141.268 15.8231C136.984 15.9176 132.775 16.9627 128.944 18.8829C125.113 20.8032 121.757 23.5505 119.118 26.9265L126.817 33.3882C131.38 27.8942 136.555 25.8459 141.43 25.7096C146.441 25.6843 151.427 27.7929 155.276 31.0238L161.738 23.3244V23.3244ZM167.043 66.6432C173.081 58.4869 174.564 49.9319 173.123 42.1856C171.588 34.7849 167.571 28.1305 161.738 23.3244L155.276 31.0238C159.263 34.3656 162.388 39.0516 163.281 43.9721C164.312 49.0036 163.41 54.7396 159.135 60.5795L167.03 66.5192L167.043 66.6432ZM165.379 68.6985L167.03 66.5192L159.135 60.5795L157.595 62.6218L165.379 68.6985ZM96.2193 108.436C96.9632 108.358 138.089 103.659 165.516 68.8095L157.732 62.7328C146.972 76.003 132.915 86.2131 116.967 92.3402C104.339 97.4283 94.9157 98.4188 95.0397 98.4057L96.0822 108.325L96.2193 108.436ZM20.1851 83.959C41.6069 101.196 68.6388 109.917 96.0953 108.449L95.0527 98.5297C95.0527 98.5297 85.6294 99.5202 72.3433 97.1557C55.496 94.4196 39.6621 87.3086 26.4249 76.5337L20.0742 84.096L20.1851 83.959ZM17.9927 82.1837L20.1851 83.959L26.5359 76.3967L24.6045 74.7193L17.9927 82.1837V82.1837ZM14.3125 38.8195C9.88719 44.4244 6.91028 51.8829 7.0983 59.6355C7.29936 67.5121 10.5283 75.5719 18.0058 82.3077L24.7285 74.7062C19.2085 69.8959 17.1472 64.5967 17.1088 59.4609C17.0574 54.2011 19.016 48.9808 22.1229 45.1442L14.3125 38.8195V38.8195Z" fill="white" fill-opacity="0.2" />
<defs>
<radialGradient id="paint0_radial_3213_946" cx="0" cy="0" r="1" gradientUnits="userSpaceOnUse" gradientTransform="translate(99.4544 141.602) rotate(-96) scale(197.569 200.904)">
<stop stop-color="#ADFF00" stop-opacity="0.3"/>
<stop offset="1" stop-color="#7DFA00" />
</radialGradient>
</defs>
</svg>
